<svg xmlns="http://www.w3.org/2000/svg" viewBox="0 0 1133.86 1133.7"><defs><style>.cls-1{fill:#a9a9aa;}</style></defs><title>insurance_1</title><g id="Capa_2" data-name="Capa 2"><g id="Capa_1-2" data-name="Capa 1"><g id="Outline"><path class="cls-1" d="M1124.48,692.35l-.26-.46a89.52,89.52,0,0,0-115.44-30.62L887.71,723.18a104.22,104.22,0,0,0-132.25-32.36L603,769a55.39,55.39,0,0,1-51.37-.32L447.7,713.47a241.22,241.22,0,0,0-252.07,15.27l-11.73-56a18.9,18.9,0,0,0-22.38-14.6l-.09,0L14.91,689.8A18.89,18.89,0,0,0,.4,712.13l85.31,406.45a18.89,18.89,0,0,0,18.47,15.12,20.27,20.27,0,0,0,4-.42l146.6-31.55a18.9,18.9,0,0,0,14.51-22.35L261.7,1043l50.08-10.79a129.52,129.52,0,0,1,44.42-1.7l235.57,25.83a202.11,202.11,0,0,0,139.41-32.73l377.36-253.17A57,57,0,0,0,1124.48,692.35ZM118.77,1092.24,41.31,722.78l109.58-23.61,77.46,369.48Zm968.74-353.11L710.15,992.3a164.84,164.84,0,0,1-113.91,26.45L360.68,992.92a164.7,164.7,0,0,0-56.91,2.27l-49.91,10.73L204.05,769,217,760a203.58,203.58,0,0,1,213-13.12L533.88,802a93.18,93.18,0,0,0,86.36.59l152.5-78.24a66.83,66.83,0,0,1,88.26,26,19.12,19.12,0,0,1-6.69,26L644.06,901.06a166.57,166.57,0,0,1-122.28,19.37L332.17,875.08l-8.77,36.77,189.79,45.34a204.14,204.14,0,0,0,150.14-23.63l210.25-124.7a56.68,56.68,0,0,0,27.49-50.12l124.85-63.88a51.67,51.67,0,0,1,66.48,17.55l.21.32A19.41,19.41,0,0,1,1087.51,739.13Z"/><rect class="cls-1" x="88.8" y="747.52" width="37.79" height="37.75" transform="translate(-155.24 38.5) rotate(-11.86)"/><path class="cls-1" d="M555.68,714.32a18.91,18.91,0,0,0,22.26,0C767.51,576,884.22,444.18,926.61,321.19h97.11a56.67,56.67,0,1,0,0-37.79h-86.6a305.44,305.44,0,0,0,6.7-42.3A214.7,214.7,0,0,0,896.33,79.84,199.76,199.76,0,0,0,736.34,0,277.27,277.27,0,0,0,566.81,66.47,277.29,277.29,0,0,0,397.28,0a199.87,199.87,0,0,0-160,79.84A214.86,214.86,0,0,0,189.77,241.1C201.16,386.29,324.27,545.53,555.68,714.32ZM1076.93,283.4a18.9,18.9,0,1,1-18.9,18.89A18.89,18.89,0,0,1,1076.93,283.4ZM265.34,105.1a17.64,17.64,0,0,0,2.37-2.87A162.47,162.47,0,0,1,397.28,37.79c87.55,0,155.49,66.67,156.17,67.33a18.89,18.89,0,0,0,26.72,0v0c.68-.7,68.13-67.33,156.16-67.33a161.25,161.25,0,0,1,129.57,64.44,18.11,18.11,0,0,0,2.36,2.87,175.74,175.74,0,0,1,37.9,133,263.85,263.85,0,0,1-7.75,45.34H747.81L677.67,160.59a18.89,18.89,0,0,0-34,2.37l-93.43,233.8L490.38,202.27a18.89,18.89,0,0,0-34.25-4.17L405,283.4H283.41v37.79H415.66A18.88,18.88,0,0,0,431.85,312l34.82-58.13L529.8,459a18.88,18.88,0,0,0,17.28,13.22h.83a18.91,18.91,0,0,0,17.56-11.88l98.81-247.07,56.17,98.24a18.9,18.9,0,0,0,16.4,9.68H886.11c-35,89-122,208.43-319.3,354.42C300.58,478.66,235.21,330,227.56,239.57A175.72,175.72,0,0,1,265.34,105.1Z"/><rect class="cls-1" x="0.01" y="283.4" width="151.15" height="37.79"/></g></g></g></svg>