<svg xmlns="http://www.w3.org/2000/svg" viewBox="0 0 1417.32 1609.03"><defs><style>.cls-1{fill:#a9a9aa;}</style></defs><title>Recurso 4</title><g id="Capa_2" data-name="Capa 2"><g id="Layer_1" data-name="Layer 1"><path class="cls-1" d="M1234.67,1096.34a23.57,23.57,0,1,0-35.05,31.53l122.24,135.93c23.05,25.56,4.84,66.56-29.58,66.56a40,40,0,0,1-29.63-13.17l-241-267.28c-10.16-11.26,14.44-8-420.55-5a39.93,39.93,0,0,1-29.65-12.9l-324.9-353.7a39.58,39.58,0,0,1-10.47-28.65c1.49-35.16,45-51.55,69.18-25.28C633.86,982.07,613.87,965,628.52,965L1032,962.2a40.09,40.09,0,0,1,29.78,13.17l86.94,96.42a23.57,23.57,0,1,0,35-31.58l-86.93-96.41a86.77,86.77,0,0,0-64.33-28.74V822.13A61.72,61.72,0,0,0,987.94,763v-10.2a64.74,64.74,0,0,0-64.68-64.67H640.68A64.75,64.75,0,0,0,576,752.75v7.75H494.35L340,592.48a87,87,0,0,0-104.71-18.1L213.83,551a87,87,0,0,0-9.58-105.19L151.1,388A87,87,0,0,0,23,505.67L76.1,563.52a87.1,87.1,0,0,0,102.75,19.09l22.28,24.24A87,87,0,0,0,211.86,710.2l324.91,353.69A87.16,87.16,0,0,0,598.93,1092a213.3,213.3,0,0,0,168,120.08v146.83H649.63A64.74,64.74,0,0,0,585,1423.56v7.85a61.66,61.66,0,0,0-59.71,61.53v54.45A61.7,61.7,0,0,0,586.87,1609h280.7a23.57,23.57,0,0,0,0-47.14H586.87a14.5,14.5,0,0,1-14.48-14.49V1493a14.5,14.5,0,0,1,14.48-14.49H995a14.51,14.51,0,0,1,14.49,14.49v54.45A14.5,14.5,0,0,1,995,1561.88H950.34a23.58,23.58,0,1,0,0,47.15H995a61.7,61.7,0,0,0,61.63-61.63V1493a61.66,61.66,0,0,0-59.71-61.54v-7.84a64.74,64.74,0,0,0-64.67-64.67H814V1212.08a212.71,212.71,0,0,0,169.19-122.67l10.55-.08,233.89,259.42a87,87,0,0,0,129.26-116.51ZM623.14,752.75a17.54,17.54,0,0,1,17.53-17.52H923.26a17.54,17.54,0,0,1,17.52,17.52v7.75H623.14Zm347.72,54.9a14.49,14.49,0,0,1,14.48,14.48v93.24l-346.54,2.4L537.64,807.65ZM140.17,544.53a39.47,39.47,0,0,1-29.37-12.89L57.65,473.78a39.86,39.86,0,0,1,58.72-53.93l53.14,57.86C192.8,503.06,175,544.53,140.17,544.53Zm792,861.52a17.54,17.54,0,0,1,17.53,17.53v7.74H632.08v-7.74a17.55,17.55,0,0,1,17.53-17.53ZM652.67,1091.69l276.81-1.91C865.38,1190.56,718.62,1192,652.67,1091.69Z"/><path class="cls-1" d="M1357.54,32.47h-55.21a23.57,23.57,0,1,0,0,47.14h55.21a12.64,12.64,0,1,1,0,25.28H972.42a95,95,0,0,0,0-25.28h249.24a23.58,23.58,0,0,0,0-47.15H951.22C902.94-24.18,811-3.24,791.84,68.42a127.17,127.17,0,0,0-164,7.44L617,85.9A61.72,61.72,0,0,0,613.64,173L788.91,362.24A61.64,61.64,0,0,0,876,365.59l10.81-10a127.1,127.1,0,0,0,12.81-172.94A92.29,92.29,0,0,0,951.22,152h406.32a59.78,59.78,0,1,0,0-119.55ZM854.78,321c-11.35,10.5-13.68,13.86-20.64,13.86-9.06,0,2.18,9.2-185.91-193.93a14.51,14.51,0,0,1,.76-20.45c11.84-11,30.21-31.36,65.24-31.36A79.32,79.32,0,0,1,773,114.8l86.1,93A80.07,80.07,0,0,1,854.78,321Zm65.7-206.91c-22.56,40.61-84.63,24.56-84.63-21.84A45.19,45.19,0,0,1,881,47.1C914.9,47.1,937.24,83.63,920.48,114.09Z"/><path class="cls-1" d="M723.57,598.1l82.3-171.76A23.57,23.57,0,1,0,763.36,406l-82.3,171.75a23.57,23.57,0,1,0,42.51,20.38Z"/><path class="cls-1" d="M400,289.22l173.87-77.71a23.58,23.58,0,0,0-19.24-43L380.73,246.18a23.57,23.57,0,0,0,19.24,43Z"/></g></g></svg>