<svg xmlns="http://www.w3.org/2000/svg" viewBox="0 0 264.19 306.64"><defs><style>.cls-1{fill:#a8a9aa;stroke-width:6px;}.cls-1,.cls-2{stroke:#a8a9aa;stroke-miterlimit:10;}.cls-2{fill:none;stroke-width:9px;}</style></defs><title>Recurso 1</title><g id="Capa_2" data-name="Capa 2"><g id="Capa_1-2" data-name="Capa 1"><ellipse class="cls-1" cx="77.39" cy="251.17" rx="13.68" ry="13.96"/><ellipse class="cls-2" cx="132.1" cy="78.97" rx="72.95" ry="74.47"/><path class="cls-2" d="M186.64,172.17v29c20.55,4.26,36,22.87,36,45.06V271a8.68,8.68,0,0,1-6.86,8.52L198.69,283a4.24,4.24,0,0,1-5-3.42L192,271a4.29,4.29,0,0,1,3.35-5.1l10.26-2.12V246.63c0-36.76-55-38.11-55,1.11v15.51l10.9,2.25a4.68,4.68,0,0,1,3.56,5.42L163.32,280A4.59,4.59,0,0,1,158,283.6l-17.62-2.42A9.16,9.16,0,0,1,132.6,272V246.24c0-22.19,15.48-40.75,36-45.06V174.61c-1.25.41-2.5.64-3.76,1.1a96.7,96.7,0,0,1-65.42,0,62,62,0,0,0-12.88-3v47.86a32,32,0,0,1,22.52,30.69c0,17.75-14.13,32.18-31.52,32.18S46,269,46,251.24a32,32,0,0,1,22.52-30.69V173.16c-36.34,6.23-64,38.11-64,76.85v26.06a25.87,25.87,0,0,0,25.6,26.07h204c14.1,0,25.57-11.7,25.57-26.07V250c0-41.89-32.41-75.8-73.05-77.84Z"/></g></g></svg>