<svg xmlns="http://www.w3.org/2000/svg" viewBox="0 0 426.2 501.31"><defs><style>.cls-1{fill:#a8a9aa;stroke:#a8a9aa;stroke-miterlimit:10;}</style></defs><title>user</title><g id="Capa_2" data-name="Capa 2"><g id="Capa_1-2" data-name="Capa 1"><path class="cls-1" d="M300.74,36.62c-24-24-53.3-36.12-87.18-36.12s-63.21,12.15-87.18,36.12S90.26,89.93,90.26,123.8,102.41,187,126.38,211s53.31,36.12,87.18,36.12S276.77,235,300.75,211s36.12-53.3,36.12-87.19S324.72,60.6,300.74,36.62ZM213.56,237.19A113.39,113.39,0,1,1,327,123.81,113.38,113.38,0,0,1,213.56,237.19Z"/><path class="cls-1" d="M424.67,383a304.1,304.1,0,0,0-4.13-32.22,254.35,254.35,0,0,0-7.92-32.4,160.66,160.66,0,0,0-13.32-30.21A113.84,113.84,0,0,0,379.24,262a88.4,88.4,0,0,0-28.84-18.13,99.6,99.6,0,0,0-36.8-6.66c-5.2,0-10.24,2.13-20,8.46-6,3.9-13,8.42-20.79,13.41-6.67,4.26-15.72,8.24-26.89,11.85a104.33,104.33,0,0,1-65.78,0c-11.16-3.6-20.21-7.59-26.87-11.85-7.73-4.94-14.73-9.45-20.8-13.41-9.71-6.33-14.74-8.47-19.94-8.47a99.42,99.42,0,0,0-36.81,6.68A88.31,88.31,0,0,0,46.94,262a113.8,113.8,0,0,0-20.07,26.17,160.77,160.77,0,0,0-13.31,30.22,255.49,255.49,0,0,0-7.91,32.39A302.63,302.63,0,0,0,1.52,383c-.68,9.74-1,19.88-1,30.12,0,26.62,8.46,48.17,25.13,64.06,16.47,15.68,38.26,23.63,64.77,23.63H335.8c26.49,0,48.28-7.95,64.76-23.63,16.68-15.88,25.14-37.44,25.14-64.07C425.69,402.84,425.35,392.7,424.67,383Zm-34.11,83.72c-15.59,14.17-36.22,21.35-61.31,21.35H96.94c-25.09,0-45.72-7.18-61.31-21.35-15.79-14.35-23.79-33.82-23.79-57.86,0-9.25.32-18.4,1-27.2a260.59,260.59,0,0,1,3.91-29.11,220.57,220.57,0,0,1,7.5-29.26A141.57,141.57,0,0,1,36.81,296a103.56,103.56,0,0,1,19-23.63A84,84,0,0,1,83.1,256a98.12,98.12,0,0,1,34.84-6c4.92,0,9.68,1.93,18.88,7.65,5.74,3.57,12.37,7.65,19.69,12.11,6.31,3.85,14.87,7.45,25.44,10.71a103.38,103.38,0,0,0,62.27,0c10.58-3.27,19.14-6.87,25.46-10.71,7.39-4.51,14-8.59,19.67-12.11,9.2-5.72,14-7.65,18.89-7.65a98.42,98.42,0,0,1,34.84,6,84.64,84.64,0,0,1,27.3,16.37,103.62,103.62,0,0,1,19,23.64A141.81,141.81,0,0,1,402,323.27a220.75,220.75,0,0,1,7.49,29.27,261.36,261.36,0,0,1,3.91,29.1c.65,8.77,1,17.92,1,27.2C414.36,432.9,406.35,452.37,390.56,466.71Z"/></g></g></svg>